<svg fill="#fff" width="50px" height="50px" viewBox="0 0 1.5 1.5" xmlns="http://www.w3.org/2000/svg"><path d="M1 0.75za0.25 0.25 0 1 0 -0.073 0.177A0.24 0.24 0 0 0 1 0.754l0 -0.004zm0.135 0a0.383 0.383 0 1 1 -0.112 -0.272 0.37 0.37 0 0 1 0.112 0.266l0 0.007v0zm0.105 -0.4v0a0.09 0.09 0 1 1 -0.026 -0.064c0.016 0.016 0.026 0.038 0.026 0.062v0.002zm-0.49 -0.215 -0.075 -0.001q-0.068 -0.001 -0.103 0t-0.094 0.003c-0.037 0.001 -0.071 0.005 -0.105 0.011l0.005 -0.001c-0.027 0.004 -0.05 0.011 -0.073 0.019l0.003 -0.001a0.258 0.258 0 0 0 -0.142 0.141l-0.001 0.002a0.375 0.375 0 0 0 -0.018 0.068l0 0.002a0.75 0.75 0 0 0 -0.01 0.099l0 0.001q-0.002 0.059 -0.003 0.094t0 0.103 0.001 0.075 -0.001 0.075 0 0.103 0.003 0.094c0.001 0.037 0.005 0.071 0.011 0.105l-0.001 -0.005c0.004 0.027 0.011 0.05 0.019 0.073l-0.001 -0.003a0.258 0.258 0 0 0 0.141 0.142l0.002 0.001c0.02 0.007 0.043 0.014 0.068 0.018l0.002 0c0.029 0.005 0.064 0.009 0.099 0.01l0.001 0q0.059 0.002 0.094 0.003t0.103 0l0.074 -0.002 0.075 0.001q0.068 0.001 0.103 0t0.094 -0.003c0.037 -0.001 0.071 -0.005 0.105 -0.011l-0.005 0.001c0.027 -0.004 0.05 -0.011 0.073 -0.019l-0.003 0.001a0.258 0.258 0 0 0 0.142 -0.141l0.001 -0.002c0.007 -0.02 0.014 -0.043 0.018 -0.068l0 -0.002c0.005 -0.029 0.009 -0.064 0.01 -0.099l0 -0.001q0.002 -0.059 0.003 -0.094t0 -0.103 -0.001 -0.075 0.001 -0.075 0 -0.103 -0.003 -0.094c-0.001 -0.037 -0.005 -0.071 -0.011 -0.105l0.001 0.005a0.394 0.394 0 0 0 -0.019 -0.073l0.001 0.003a0.258 0.258 0 0 0 -0.141 -0.142l-0.002 -0.001a0.375 0.375 0 0 0 -0.068 -0.018l-0.002 0a0.75 0.75 0 0 0 -0.099 -0.01l-0.001 0q-0.059 -0.002 -0.094 -0.003t-0.103 0zM1.5 0.75q0 0.224 -0.005 0.31a0.415 0.415 0 0 1 -0.437 0.435l0.001 0q-0.086 0.005 -0.31 0.005t-0.31 -0.005a0.415 0.415 0 0 1 -0.435 -0.437l0 0.001q-0.005 -0.086 -0.005 -0.31t0.005 -0.31A0.415 0.415 0 0 1 0.441 0.005L0.44 0.005q0.086 -0.005 0.31 -0.005t0.31 0.005a0.415 0.415 0 0 1 0.435 0.437l0 -0.001Q1.5 0.526 1.5 0.75"/></svg>
